,
.   http://www.scenetime.com/signup.php  ---&gt;  Hottest scene tracker on the net !!! 
Scenetime lucky draw is started , join now and be the winner . offer is limited 

    Join Now   http://www.scenetime.com/signup.php

    seed back for speed


 



...................................NFO:.................................................

 
TITLE: 

Sherlock Holmes A Games of Shadows 2011 READNFO TS XViD NoZGT

IMDB: 
 
http://www.imdb.com/title/tt1515091/


SOURCES:

VIDEO - 26k thx
AUDIO - Used DTRG line Sources: UnKnoWn/26k thx
SUBS  - ENG HC 

STATS:

Video
ID                               : 0
Format                           : MPEG-4 Visual
Format profile                   : Advanced Simple@L5
Format settings, BVOP            : 2
Format settings, QPel            : No
Format settings, GMC             : No warppoints
Format settings, Matrix          : Default (MPEG)
Muxing mode                      : Packed bitstream
Codec ID                         : XVID
Codec ID/Hint                    : XviD
Duration                         : 2h 0mn 31sec
Bit rate                         : 1 042 Kbps
Width                            : 720 pixels
Height                           : 304 pixels
Display aspect ratio             : 2.35:1
Frame rate                       : 25.000 fps
Color space                      : YUV
Chroma subsampling               : 4:2:0
Bit depth                        : 8 bits
Scan type                        : Progressive
Compression mode                 : Lossy
Bits/(Pixel*Frame)               : 0.396
Stream size                      : 1.82 GiB (94%)
Writing library                  : XviD 

Audio
ID                               : 1
Format                           : MPEG Audio
Format version                   : Version 1
Format profile                   : Layer 3
Mode                             : Joint stereo
Mode extension                   : MS Stereo
Codec ID                         : 55
Codec ID/Hint                    : MP3
Duration                         : 2h 0mn
Bit rate mode                    : Constant
Bit rate                         : 128 Kbps
Channel(s)                       : 2 channels
Sampling rate                    : 44.1 KHz
Compression mode                 : Lossy
Stream size                      : 110 MiB (6%)
Alignment                        : Split accross interleaves
Interleave, duration             : 14040 ms(14sec added in begining)
Interleave, preload duration     : 500 ms


NOTES:

First off I like to thank all the sources 26k,UnKnowN,Inspiral and DTRG for fixing the line :)

Workdone:
I split the movie up into multiple parts and adjusted levels when it was needed. I added some more Saturation and used a blur so i can resharpen it up without it making it look like crap. I also took 14sec of the beginning of the first source to make it a more of a full movie. Hope you all like if not dont download it